<?xml version="1.0" standalone="no"?>
<!DOCTYPE svg PUBLIC "-//W3C//DTD SVG 20010904//EN"
 "http://www.w3.org/TR/2001/REC-SVG-20010904/DTD/svg10.dtd">
<svg version="1.0" xmlns="http://www.w3.org/2000/svg"
 width="512.000000pt" height="512.000000pt" viewBox="0 0 512.000000 512.000000"
 preserveAspectRatio="xMidYMid meet">
<metadata>
Created by potrace 1.14, written by Peter Selinger 2001-2017
</metadata>
<g transform="translate(0.000000,512.000000) scale(0.100000,-0.100000)"
fill="#000000" stroke="none">
<path d="M2565 4729 c-193 -28 -373 -165 -469 -356 -20 -39 -36 -77 -36 -85 0
-7 -12 5 -27 27 -140 211 -358 335 -588 335 -163 0 -325 -65 -438 -174 -79
-76 -109 -117 -152 -208 -49 -104 -66 -178 -70 -304 -2 -90 2 -127 21 -203 49
-196 163 -362 318 -463 l49 -32 -49 -40 c-84 -71 -216 -213 -291 -313 -110
-147 -225 -392 -248 -530 -12 -74 -13 -75 -161 -121 -77 -24 -188 -59 -249
-78 -60 -20 -119 -37 -129 -40 -35 -7 -51 -30 -39 -56 9 -20 45 -34 229 -91
121 -38 243 -76 273 -86 l55 -18 27 -104 c86 -332 260 -587 580 -854 143 -120
404 -267 619 -350 206 -79 474 -150 645 -170 28 -3 59 -8 70 -10 122 -25 604
-25 755 -1 14 3 47 7 74 11 27 3 52 8 55 9 3 2 29 7 56 10 76 11 269 61 386
102 683 237 1150 718 1266 1302 27 137 24 387 -5 527 -67 310 -206 567 -433
794 -85 85 -239 210 -292 237 -27 15 -28 18 -26 77 3 63 7 92 36 227 21 103
37 149 95 285 l34 80 52 6 c130 16 204 143 150 257 -69 145 -276 136 -334 -14
-15 -40 -16 -54 -6 -104 12 -56 12 -59 -23 -128 -53 -108 -114 -293 -131 -396
-3 -21 -8 -48 -10 -60 -2 -11 -7 -41 -10 -66 -3 -25 -7 -46 -8 -48 -2 -1 -34
13 -72 31 -121 59 -248 110 -382 153 -10 3 -12 15 -8 42 16 114 93 351 138
427 16 28 26 35 51 35 41 1 106 30 136 63 30 33 50 110 40 155 -31 140 -212
193 -309 89 -46 -47 -64 -136 -39 -190 9 -20 5 -35 -24 -93 -51 -101 -112
-281 -130 -384 -13 -72 -20 -100 -22 -100 -2 0 -48 9 -102 19 -54 11 -118 22
-143 25 -25 2 -71 8 -103 12 -48 5 -58 9 -53 23 3 9 14 42 25 74 110 316 -22
661 -302 791 -94 43 -215 60 -322 45z"/>
</g>
</svg>
