<?xml version="1.0" standalone="no"?>
<!DOCTYPE svg PUBLIC "-//W3C//DTD SVG 20010904//EN"
 "http://www.w3.org/TR/2001/REC-SVG-20010904/DTD/svg10.dtd">
<svg version="1.0" xmlns="http://www.w3.org/2000/svg"
 width="665.000000pt" height="665.000000pt" viewBox="0 0 665.000000 665.000000"
 preserveAspectRatio="xMidYMid meet">
<metadata>
Created by potrace 1.14, written by Peter Selinger 2001-2017
</metadata>
<g transform="translate(0.000000,665.000000) scale(0.100000,-0.100000)"
fill="#000000" stroke="none">
<path d="M2864 6146 c-73 -26 -134 -101 -161 -196 l-15 -56 -72 0 c-174 -1
-330 -53 -504 -167 -77 -51 -224 -189 -262 -247 -13 -19 -29 -40 -36 -46 -26
-22 -124 -225 -150 -311 -20 -68 -27 -116 -30 -208 -2 -66 0 -136 5 -155 22
-86 22 -86 -6 -88 -39 -3 -159 -41 -222 -69 -140 -64 -281 -191 -399 -358 -54
-78 -148 -286 -178 -395 -9 -36 -20 -69 -23 -75 -2 -5 -6 -25 -8 -44 -2 -19
-8 -40 -13 -46 -6 -7 -7 -14 -5 -17 3 -3 1 -25 -4 -49 -5 -24 -13 -71 -16
-104 -4 -33 -9 -71 -11 -85 -6 -33 -6 -351 0 -415 15 -160 43 -324 76 -456 12
-46 23 -91 25 -99 4 -19 53 -168 64 -195 119 -294 223 -484 364 -665 134 -172
325 -346 460 -419 96 -53 169 -87 187 -89 3 0 19 -6 35 -12 34 -13 34 -13 130
-34 45 -10 111 -15 187 -13 l116 2 0 -70 c0 -209 158 -394 376 -439 174 -37
351 14 476 134 33 33 60 65 60 71 0 7 26 -15 58 -47 77 -80 119 -107 222 -144
68 -24 198 -33 264 -18 22 5 49 11 59 13 29 6 141 66 159 85 10 11 24 22 31
27 24 15 77 91 102 145 27 60 38 119 37 197 l-1 53 47 -7 c119 -18 262 0 412
53 41 14 77 28 80 31 3 3 11 7 18 9 19 4 209 119 231 140 10 9 38 33 62 52 61
49 184 175 232 237 22 29 43 53 48 53 5 0 9 6 9 13 0 7 8 22 18 33 63 67 260
432 306 564 8 25 23 65 32 90 36 98 102 340 108 395 1 17 8 59 14 95 6 36 13
88 17 115 3 28 8 70 11 95 7 62 7 343 -1 410 -8 73 -15 139 -19 170 -1 14 -6
36 -9 50 -4 14 -9 36 -12 50 -16 82 -25 118 -34 143 -6 15 -13 38 -15 50 -8
37 -75 197 -113 265 -88 160 -207 299 -325 380 -101 69 -234 126 -323 138 -22
3 -43 9 -47 12 -4 4 0 34 8 67 19 78 16 218 -7 319 -18 84 -76 238 -91 244 -4
2 -8 9 -8 16 0 11 -70 121 -103 163 -47 60 -195 200 -243 230 -130 84 -222
126 -330 152 -87 21 -87 21 -191 24 -51 1 -73 5 -74 14 -5 48 -55 149 -91 183
-61 59 -92 71 -158 65 -74 -8 -139 -52 -192 -130 -28 -42 -66 -123 -75 -159
-38 -157 -37 -292 2 -416 17 -54 59 -110 112 -150 28 -22 41 -25 104 -25 68 0
138 39 184 102 34 48 53 52 82 21 66 -71 102 -209 98 -373 -1 -66 -5 -136 -8
-155 -21 -113 -78 -224 -130 -248 -26 -12 -31 -12 -47 5 -30 31 -57 51 -79 58
-12 3 -21 11 -21 16 0 5 -7 9 -15 9 -9 0 -26 6 -38 14 -28 19 -168 63 -227 72
-68 10 -199 12 -239 3 -20 -4 -47 -10 -61 -12 -96 -17 -220 -71 -306 -132 -50
-36 -68 -44 -81 -36 -57 30 -105 126 -131 261 -14 72 -6 292 13 355 25 83 59
149 92 175 26 20 29 21 38 4 25 -44 81 -96 131 -120 49 -24 96 -28 160 -14 1
0 18 14 39 30 51 41 79 84 105 161 39 115 29 343 -20 438 -10 20 -17 38 -17
41 3 10 -61 106 -89 134 -61 60 -154 86 -220 62z"/>
</g>
</svg>
